HIERARCHY
ROOT Hips
{
	OFFSET -3.958830 18.904000 13.208200
	CHANNELS 6 Xposition Yposition Zposition Zrotation Yrotation Xrotation 
	JOINT LHipJoint
	{
		OFFSET 0.000000 0.000000 0.000000
		CHANNELS 3 Zrotation Yrotation Xrotation
		JOINT LeftUpLeg
		{
			OFFSET 1.800000 -1.400000 0.085000
			CHANNELS 3 Zrotation Yrotation Xrotation
			JOINT LeftLeg
			{
				OFFSET 2.215000 -6.000000 0.000000
				CHANNELS 3 Zrotation Yrotation Xrotation
				JOINT LeftFoot
				{
					OFFSET 2.500000 -6.900000 0.000000
					CHANNELS 3 Zrotation Yrotation Xrotation
					JOINT LeftToeBase
					{
						OFFSET 0.200000 -0.500000 1.950000
						CHANNELS 3 Zrotation Yrotation Xrotation
						End Site
						{
							OFFSET 0.000000 0.000000 0.000000
						}
					}
				}
			}
		}
	}
	JOINT RHipJoint
	{
		OFFSET 0.000000 0.000000 0.000000
		CHANNELS 3 Zrotation Yrotation Xrotation
		JOINT RightUpLeg
		{
			OFFSET -1.800000 -1.400000 0.085000
			CHANNELS 3 Zrotation Yrotation Xrotation
			JOINT RightLeg
			{
				OFFSET -2.215000 -6.000000 0.000000
				CHANNELS 3 Zrotation Yrotation Xrotation
				JOINT RightFoot
				{
					OFFSET -2.500000 -6.900000 0.000000
					CHANNELS 3 Zrotation Yrotation Xrotation
					JOINT RightToeBase
					{
						OFFSET -0.200000 -0.500000 1.950000
						CHANNELS 3 Zrotation Yrotation Xrotation
						End Site
						{
							OFFSET 0.000000 0.000000 0.000000
						}
					}
				}
			}
		}
	}
	JOINT LowerBack
	{
		OFFSET 0.000000 0.000000 0.000000
		CHANNELS 3 Zrotation Yrotation Xrotation
		JOINT Spine
		{
			OFFSET -0.087000 1.940000 -0.288900
			CHANNELS 3 Zrotation Yrotation Xrotation
			JOINT Spine1
			{
				OFFSET 0.000000 1.950000 0.060000
				CHANNELS 3 Zrotation Yrotation Xrotation
				JOINT Neck
				{
					OFFSET 0.000000 0.000000 0.000000
					CHANNELS 3 Zrotation Yrotation Xrotation
					JOINT Neck1
					{
						OFFSET 0.000000 1.600000 0.340000
						CHANNELS 3 Zrotation Yrotation Xrotation
						JOINT Head
						{
							OFFSET 0.000000 1.667000 -0.240000
							CHANNELS 3 Zrotation Yrotation Xrotation
							End Site
							{
								OFFSET 0.000000 0.000000 0.000000
							}
						}
					}
				}
				JOINT LeftShoulder
				{
					OFFSET 0.000000 0.000000 0.000000
					CHANNELS 3 Zrotation Yrotation Xrotation
					JOINT LeftArm
					{
						OFFSET 2.700000 1.550000 -0.730000
						CHANNELS 3 Zrotation Yrotation Xrotation
						JOINT LeftForeArm
						{
							OFFSET 5.450000 0.000000 0.000000
							CHANNELS 3 Zrotation Yrotation Xrotation
							JOINT LeftHand
							{
								OFFSET 3.450000 0.000000 0.000000
								CHANNELS 3 Zrotation Yrotation Xrotation
								JOINT LeftHandIndex1
								{
									OFFSET 0.750000 0.000000 0.000000
									CHANNELS 3 Zrotation Yrotation Xrotation
									End Site
									{
										OFFSET 0.000000 0.000000 0.000000
									}
								}
							}
						}
					}
				}
				JOINT RightShoulder
				{
					OFFSET 0.000000 0.000000 0.000000
					CHANNELS 3 Zrotation Yrotation Xrotation
					JOINT RightArm
					{
						OFFSET -2.700000 1.550000 -0.730000
						CHANNELS 3 Zrotation Yrotation Xrotation
						JOINT RightForeArm
						{
							OFFSET -5.450000 0.000000 0.000000
							CHANNELS 3 Zrotation Yrotation Xrotation
							JOINT RightHand
							{
								OFFSET -3.450000 0.000000 0.000000
								CHANNELS 3 Zrotation Yrotation Xrotation
								JOINT RightHandIndex1
								{
									OFFSET -0.750000 0.000000 0.000000
									CHANNELS 3 Zrotation Yrotation Xrotation
									End Site
									{
										OFFSET 0.000000 0.000000 0.000000
									}
								}
							}
						}
					}
				}
			}
		}
	}
}
MOTION
Frames: 4
Frame Time: 0.016667
1.498410 18.163280 -0.754810 -3.556747 -24.089828 -13.491447 -15.368876 12.399699 2.314064 3.520207 0.287009 -4.854367 -15.487798 9.551202 15.544870 -0.598263 5.876731 2.530023 -0.062770 -0.269890 -0.112020 18.616595 -7.250505 6.708273 15.316653 24.075546 -41.465083 -22.682850 7.864651 77.581967 -2.276064 -11.614325 0.702175 -0.037380 0.359510 -0.051770 -3.985383 -3.711688 -9.163835 20.655977 -5.888629 37.299346 -2.797582 -0.285899 3.720910 1.227954 -8.958105 -11.159323 -23.676268 11.737602 44.037336 -8.961440 5.475450 -17.161350 -31.524326 -19.349422 2.290591 -15.801718 -7.874299 -11.681327 35.615957 -73.377531 -27.138126 -3.671555 2.211476 0.822630 0.036090 -0.100930 -0.034680 28.864487 24.833371 10.027801 34.182725 9.944208 -11.890784 22.102086 52.992737 7.426694 1.640332 -1.097111 -0.550860 0.681260 0.583910 -0.314150 
1.507310 18.164870 -0.753720 -3.775719 -24.530289 -13.433935 -15.382105 12.344484 2.279313 3.593010 0.283389 -5.031330 -15.625764 9.629286 15.660656 -0.601989 5.897735 2.519319 -0.059230 -0.267640 -0.110900 18.625780 -7.144487 6.823554 15.802057 24.730551 -41.638072 -22.754477 8.027320 78.886415 -2.339507 -11.833067 0.649503 -0.035510 0.359040 -0.050980 -4.010283 -3.715780 -9.199665 21.184342 -5.939560 37.484529 -2.745071 -0.154556 3.813285 1.245311 -9.057185 -11.270278 -23.981620 11.787670 44.091699 -8.939090 5.310810 -17.256760 -31.243743 -19.423299 2.324679 -15.772290 -7.855798 -11.661436 34.596353 -73.249712 -26.416978 -3.670064 2.225662 0.827820 0.034980 -0.099870 -0.035320 28.559948 25.032087 10.059990 34.187904 10.064988 -11.997622 21.149883 52.748399 6.985146 1.630143 -1.087011 -0.551220 0.684300 0.585710 -0.315370 
1.514980 18.164330 -0.752860 -3.999222 -25.032722 -13.201434 -15.398488 12.247110 2.226153 3.637594 0.337007 -4.984252 -15.683640 9.535555 15.159966 -0.610350 5.853268 2.536234 -0.064390 -0.273190 -0.115450 18.645081 -6.986845 7.008912 16.061187 25.813081 -42.426953 -22.344317 7.826580 80.864450 -2.407201 -12.101646 0.580584 -0.037200 0.362100 -0.051030 -4.062103 -3.685306 -9.260252 21.790853 -5.948262 37.502305 -2.837819 0.043923 3.822332 1.281187 -9.094653 -11.310086 -24.058448 11.747097 44.102437 -8.952140 5.218610 -17.033250 -31.107119 -19.426972 2.308246 -15.738607 -7.930402 -11.567000 33.556767 -73.057301 -25.593224 -3.675452 2.245260 0.824240 0.038020 -0.104060 -0.037860 28.334127 25.119342 10.065867 34.349954 10.203204 -12.008162 20.165446 52.381833 6.528197 1.625541 -1.078638 -0.552050 0.684050 0.590910 -0.315020 
1.520560 18.160960 -0.750990 -4.271192 -25.624251 -12.768803 -15.417956 12.097750 2.155996 3.646464 0.429111 -4.683959 -15.661465 9.244460 13.976312 -0.644541 5.760869 2.580568 -0.081660 -0.298870 -0.126590 18.676705 -6.774836 7.266698 16.166947 27.356902 -43.817885 -21.532750 7.258331 83.476787 -2.479216 -12.426093 0.502500 -0.042290 0.381030 -0.052100 -4.149628 -3.609857 -9.346345 22.527590 -5.948809 37.289176 -3.093758 0.294699 3.860448 1.334927 -9.085739 -11.316419 -23.939107 11.610435 44.063577 -9.045190 5.134350 -16.608540 -31.002833 -19.429388 2.266288 -15.722289 -8.041264 -11.429212 32.619247 -72.733335 -24.758289 -3.694774 2.245823 0.827150 0.052610 -0.119180 -0.041540 28.080947 25.164698 10.079389 34.763604 10.354172 -12.004238 19.161637 52.046480 6.061650 1.610466 -1.061811 -0.569730 0.693780 0.606510 -0.320160 
